<svg width="397" height="82" viewBox="0 0 397 82" fill="none" xmlns="http://www.w3.org/2000/svg">
<path d="M5.04688 65V15.2285H25.3672C32.8932 15.2285 38.9915 17.5085 43.6621 22.0684C48.3327 26.6283 50.668 32.638 50.668 40.0977C50.668 47.6237 48.3438 53.6556 43.6953 58.1934C39.0469 62.7311 32.9375 65 25.3672 65H5.04688ZM17.5312 53.9102H25.3672C26.9609 53.9102 28.4329 53.722 29.7832 53.3457C31.1335 52.9473 32.4616 52.2721 33.7676 51.3203C35.0957 50.3685 36.1361 48.9408 36.8887 47.0371C37.6413 45.1335 38.0176 42.8424 38.0176 40.1641C38.0176 37.4414 37.6302 35.1393 36.8555 33.2578C36.0807 31.3542 35.0404 29.9264 33.7344 28.9746C32.4505 28.0228 31.1335 27.3477 29.7832 26.9492C28.4329 26.5286 26.9609 26.3184 25.3672 26.3184H17.5312V53.9102ZM98.7129 15.2285L79.3555 46.1738V59.5547C79.3555 63.1849 77.5404 65 73.9102 65H66.7715V46.1074L47.7793 15.2285H58.0059C60.8613 15.2285 63.0085 16.4792 64.4473 18.9805L73.0137 33.7227L81.7129 18.9805C83.1738 16.4792 85.332 15.2285 88.1875 15.2285H98.7129ZM143.969 65L115.547 39.3008V59.5547C115.547 63.1849 113.732 65 110.102 65H103.062V15.2285H106.582L134.871 41.3262V20.6738C134.871 17.0436 136.686 15.2285 140.316 15.2285H147.455V65H143.969ZM151.141 65L176.973 15.2285H180.027L205.859 65H196.496C193.508 65 191.372 63.6829 190.088 61.0488L188.727 58.3262H168.207L166.912 60.9824C165.606 63.6608 163.47 65 160.504 65H151.141ZM172.955 48.2656H183.979L178.467 36.5781L172.955 48.2656ZM213.098 15.2285L235.344 41.3926L257.557 15.2285H260.777V65H253.605C249.975 65 248.171 63.1849 248.193 59.5547L248.26 44.7461L235.344 59.9531L222.395 44.7461V59.5547C222.395 63.1849 220.59 65 216.982 65H209.91V15.2285H213.098ZM285.049 65H277.91C274.28 65 272.465 63.1849 272.465 59.5547V15.2285H279.604C283.234 15.2285 285.049 17.0436 285.049 20.6738V65ZM341.727 51.6191C338.008 61.1374 330.327 65.8965 318.684 65.8965C311.512 65.8965 305.369 63.3841 300.256 58.3594C295.143 53.3125 292.586 47.2585 292.586 40.1973C292.586 33.1139 295.143 27.0599 300.256 22.0352C305.391 16.9883 311.534 14.4648 318.684 14.4648C323.996 14.4648 328.645 15.7376 332.629 18.2832C336.613 20.8288 339.723 24.2708 341.959 28.6094L334.953 31.3984C332.452 32.4388 329.995 31.7637 327.582 29.373C325.125 27.0267 322.159 25.8424 318.684 25.8203C314.876 25.8203 311.667 27.1595 309.055 29.8379C306.465 32.5163 305.17 35.9583 305.17 40.1641C305.17 44.4362 306.465 47.9004 309.055 50.5566C311.667 53.2129 314.876 54.541 318.684 54.541C322.225 54.541 325.214 53.3568 327.648 50.9883C328.866 49.7266 329.984 48.9297 331.002 48.5977C332.042 48.2435 333.359 48.3431 334.953 48.8965L341.727 51.6191ZM341.594 65L367.426 15.2285H370.48L396.312 65H386.949C383.961 65 381.825 63.6829 380.541 61.0488L379.18 58.3262H358.66L357.365 60.9824C356.059 63.6608 353.923 65 350.957 65H341.594ZM363.408 48.2656H374.432L368.92 36.5781L363.408 48.2656Z" fill="#121212"/>
</svg>
