<svg width="399" height="82" viewBox="0 0 399 82" fill="none" xmlns="http://www.w3.org/2000/svg">
<path d="M4.04688 64V14.2285H24.3672C31.8932 14.2285 37.9915 16.5085 42.6621 21.0684C47.3327 25.6283 49.668 31.638 49.668 39.0977C49.668 46.6237 47.3438 52.6556 42.6953 57.1934C38.0469 61.7311 31.9375 64 24.3672 64H4.04688ZM16.5312 52.9102H24.3672C25.9609 52.9102 27.4329 52.722 28.7832 52.3457C30.1335 51.9473 31.4616 51.2721 32.7676 50.3203C34.0957 49.3685 35.1361 47.9408 35.8887 46.0371C36.6413 44.1335 37.0176 41.8424 37.0176 39.1641C37.0176 36.4414 36.6302 34.1393 35.8555 32.2578C35.0807 30.3542 34.0404 28.9264 32.7344 27.9746C31.4505 27.0228 30.1335 26.3477 28.7832 25.9492C27.4329 25.5286 25.9609 25.3184 24.3672 25.3184H16.5312V52.9102ZM97.7129 14.2285L78.3555 45.1738V58.5547C78.3555 62.1849 76.5404 64 72.9102 64H65.7715V45.1074L46.7793 14.2285H57.0059C59.8613 14.2285 62.0085 15.4792 63.4473 17.9805L72.0137 32.7227L80.7129 17.9805C82.1738 15.4792 84.332 14.2285 87.1875 14.2285H97.7129ZM142.969 64L114.547 38.3008V58.5547C114.547 62.1849 112.732 64 109.102 64H102.062V14.2285H105.582L133.871 40.3262V19.6738C133.871 16.0436 135.686 14.2285 139.316 14.2285H146.455V64H142.969ZM150.141 64L175.973 14.2285H179.027L204.859 64H195.496C192.508 64 190.372 62.6829 189.088 60.0488L187.727 57.3262H167.207L165.912 59.9824C164.606 62.6608 162.47 64 159.504 64H150.141ZM171.955 47.2656H182.979L177.467 35.5781L171.955 47.2656ZM212.098 14.2285L234.344 40.3926L256.557 14.2285H259.777V64H252.605C248.975 64 247.171 62.1849 247.193 58.5547L247.26 43.7461L234.344 58.9531L221.395 43.7461V58.5547C221.395 62.1849 219.59 64 215.982 64H208.91V14.2285H212.098ZM284.049 64H276.91C273.28 64 271.465 62.1849 271.465 58.5547V14.2285H278.604C282.234 14.2285 284.049 16.0436 284.049 19.6738V64ZM340.727 50.6191C337.008 60.1374 329.327 64.8965 317.684 64.8965C310.512 64.8965 304.369 62.3841 299.256 57.3594C294.143 52.3125 291.586 46.2585 291.586 39.1973C291.586 32.1139 294.143 26.0599 299.256 21.0352C304.391 15.9883 310.534 13.4648 317.684 13.4648C322.996 13.4648 327.645 14.7376 331.629 17.2832C335.613 19.8288 338.723 23.2708 340.959 27.6094L333.953 30.3984C331.452 31.4388 328.995 30.7637 326.582 28.373C324.125 26.0267 321.159 24.8424 317.684 24.8203C313.876 24.8203 310.667 26.1595 308.055 28.8379C305.465 31.5163 304.17 34.9583 304.17 39.1641C304.17 43.4362 305.465 46.9004 308.055 49.5566C310.667 52.2129 313.876 53.541 317.684 53.541C321.225 53.541 324.214 52.3568 326.648 49.9883C327.866 48.7266 328.984 47.9297 330.002 47.5977C331.042 47.2435 332.359 47.3431 333.953 47.8965L340.727 50.6191ZM340.594 64L366.426 14.2285H369.48L395.312 64H385.949C382.961 64 380.825 62.6829 379.541 60.0488L378.18 57.3262H357.66L356.365 59.9824C355.059 62.6608 352.923 64 349.957 64H340.594ZM362.408 47.2656H373.432L367.92 35.5781L362.408 47.2656Z" fill="#FF4081"/>
<path d="M7.04688 67V17.2285H27.3672C34.8932 17.2285 40.9915 19.5085 45.6621 24.0684C50.3327 28.6283 52.668 34.638 52.668 42.0977C52.668 49.6237 50.3438 55.6556 45.6953 60.1934C41.0469 64.7311 34.9375 67 27.3672 67H7.04688ZM19.5312 55.9102H27.3672C28.9609 55.9102 30.4329 55.722 31.7832 55.3457C33.1335 54.9473 34.4616 54.2721 35.7676 53.3203C37.0957 52.3685 38.1361 50.9408 38.8887 49.0371C39.6413 47.1335 40.0176 44.8424 40.0176 42.1641C40.0176 39.4414 39.6302 37.1393 38.8555 35.2578C38.0807 33.3542 37.0404 31.9264 35.7344 30.9746C34.4505 30.0228 33.1335 29.3477 31.7832 28.9492C30.4329 28.5286 28.9609 28.3184 27.3672 28.3184H19.5312V55.9102ZM100.713 17.2285L81.3555 48.1738V61.5547C81.3555 65.1849 79.5404 67 75.9102 67H68.7715V48.1074L49.7793 17.2285H60.0059C62.8613 17.2285 65.0085 18.4792 66.4473 20.9805L75.0137 35.7227L83.7129 20.9805C85.1738 18.4792 87.332 17.2285 90.1875 17.2285H100.713ZM145.969 67L117.547 41.3008V61.5547C117.547 65.1849 115.732 67 112.102 67H105.062V17.2285H108.582L136.871 43.3262V22.6738C136.871 19.0436 138.686 17.2285 142.316 17.2285H149.455V67H145.969ZM153.141 67L178.973 17.2285H182.027L207.859 67H198.496C195.508 67 193.372 65.6829 192.088 63.0488L190.727 60.3262H170.207L168.912 62.9824C167.606 65.6608 165.47 67 162.504 67H153.141ZM174.955 50.2656H185.979L180.467 38.5781L174.955 50.2656ZM215.098 17.2285L237.344 43.3926L259.557 17.2285H262.777V67H255.605C251.975 67 250.171 65.1849 250.193 61.5547L250.26 46.7461L237.344 61.9531L224.395 46.7461V61.5547C224.395 65.1849 222.59 67 218.982 67H211.91V17.2285H215.098ZM287.049 67H279.91C276.28 67 274.465 65.1849 274.465 61.5547V17.2285H281.604C285.234 17.2285 287.049 19.0436 287.049 22.6738V67ZM343.727 53.6191C340.008 63.1374 332.327 67.8965 320.684 67.8965C313.512 67.8965 307.369 65.3841 302.256 60.3594C297.143 55.3125 294.586 49.2585 294.586 42.1973C294.586 35.1139 297.143 29.0599 302.256 24.0352C307.391 18.9883 313.534 16.4648 320.684 16.4648C325.996 16.4648 330.645 17.7376 334.629 20.2832C338.613 22.8288 341.723 26.2708 343.959 30.6094L336.953 33.3984C334.452 34.4388 331.995 33.7637 329.582 31.373C327.125 29.0267 324.159 27.8424 320.684 27.8203C316.876 27.8203 313.667 29.1595 311.055 31.8379C308.465 34.5163 307.17 37.9583 307.17 42.1641C307.17 46.4362 308.465 49.9004 311.055 52.5566C313.667 55.2129 316.876 56.541 320.684 56.541C324.225 56.541 327.214 55.3568 329.648 52.9883C330.866 51.7266 331.984 50.9297 333.002 50.5977C334.042 50.2435 335.359 50.3431 336.953 50.8965L343.727 53.6191ZM343.594 67L369.426 17.2285H372.48L398.312 67H388.949C385.961 67 383.825 65.6829 382.541 63.0488L381.18 60.3262H360.66L359.365 62.9824C358.059 65.6608 355.923 67 352.957 67H343.594ZM365.408 50.2656H376.432L370.92 38.5781L365.408 50.2656Z" fill="#7C4DFF"/>
<path d="M5.04688 65V15.2285H25.3672C32.8932 15.2285 38.9915 17.5085 43.6621 22.0684C48.3327 26.6283 50.668 32.638 50.668 40.0977C50.668 47.6237 48.3438 53.6556 43.6953 58.1934C39.0469 62.7311 32.9375 65 25.3672 65H5.04688ZM17.5312 53.9102H25.3672C26.9609 53.9102 28.4329 53.722 29.7832 53.3457C31.1335 52.9473 32.4616 52.2721 33.7676 51.3203C35.0957 50.3685 36.1361 48.9408 36.8887 47.0371C37.6413 45.1335 38.0176 42.8424 38.0176 40.1641C38.0176 37.4414 37.6302 35.1393 36.8555 33.2578C36.0807 31.3542 35.0404 29.9264 33.7344 28.9746C32.4505 28.0228 31.1335 27.3477 29.7832 26.9492C28.4329 26.5286 26.9609 26.3184 25.3672 26.3184H17.5312V53.9102ZM98.7129 15.2285L79.3555 46.1738V59.5547C79.3555 63.1849 77.5404 65 73.9102 65H66.7715V46.1074L47.7793 15.2285H58.0059C60.8613 15.2285 63.0085 16.4792 64.4473 18.9805L73.0137 33.7227L81.7129 18.9805C83.1738 16.4792 85.332 15.2285 88.1875 15.2285H98.7129ZM143.969 65L115.547 39.3008V59.5547C115.547 63.1849 113.732 65 110.102 65H103.062V15.2285H106.582L134.871 41.3262V20.6738C134.871 17.0436 136.686 15.2285 140.316 15.2285H147.455V65H143.969ZM151.141 65L176.973 15.2285H180.027L205.859 65H196.496C193.508 65 191.372 63.6829 190.088 61.0488L188.727 58.3262H168.207L166.912 60.9824C165.606 63.6608 163.47 65 160.504 65H151.141ZM172.955 48.2656H183.979L178.467 36.5781L172.955 48.2656ZM213.098 15.2285L235.344 41.3926L257.557 15.2285H260.777V65H253.605C249.975 65 248.171 63.1849 248.193 59.5547L248.26 44.7461L235.344 59.9531L222.395 44.7461V59.5547C222.395 63.1849 220.59 65 216.982 65H209.91V15.2285H213.098ZM285.049 65H277.91C274.28 65 272.465 63.1849 272.465 59.5547V15.2285H279.604C283.234 15.2285 285.049 17.0436 285.049 20.6738V65ZM341.727 51.6191C338.008 61.1374 330.327 65.8965 318.684 65.8965C311.512 65.8965 305.369 63.3841 300.256 58.3594C295.143 53.3125 292.586 47.2585 292.586 40.1973C292.586 33.1139 295.143 27.0599 300.256 22.0352C305.391 16.9883 311.534 14.4648 318.684 14.4648C323.996 14.4648 328.645 15.7376 332.629 18.2832C336.613 20.8288 339.723 24.2708 341.959 28.6094L334.953 31.3984C332.452 32.4388 329.995 31.7637 327.582 29.373C325.125 27.0267 322.159 25.8424 318.684 25.8203C314.876 25.8203 311.667 27.1595 309.055 29.8379C306.465 32.5163 305.17 35.9583 305.17 40.1641C305.17 44.4362 306.465 47.9004 309.055 50.5566C311.667 53.2129 314.876 54.541 318.684 54.541C322.225 54.541 325.214 53.3568 327.648 50.9883C328.866 49.7266 329.984 48.9297 331.002 48.5977C332.042 48.2435 333.359 48.3431 334.953 48.8965L341.727 51.6191ZM341.594 65L367.426 15.2285H370.48L396.312 65H386.949C383.961 65 381.825 63.6829 380.541 61.0488L379.18 58.3262H358.66L357.365 60.9824C356.059 63.6608 353.923 65 350.957 65H341.594ZM363.408 48.2656H374.432L368.92 36.5781L363.408 48.2656Z" fill="#121212"/>
</svg>
